<svg width="51" height="39" viewBox="0 0 51 39" fill="none" xmlns="http://www.w3.org/2000/svg">
<path d="M1.91382 37.0129C2.21189 36.9281 2.98018 36.6712 3.73113 36.4785C4.63683 36.246 7.83921 35.9851 9.64176 35.644C10.489 35.4837 11.3312 34.5307 12.1676 34.0599C13.2378 33.4574 14.7565 32.5625 15.5511 32.2599C16.3958 31.9383 17.8785 31.3651 18.8703 30.8897C19.4939 30.5908 20.2399 30.5479 21.6294 29.8002C22.8912 29.1211 23.1538 28.1942 23.7313 27.1882C24.3222 26.1589 26.1011 24.6457 26.8796 23.6538C27.4229 22.9617 28.4599 22.4564 29.5969 21.8121C30.7427 21.1628 31.2916 19.7584 31.8254 18.7941C32.5814 17.4285 33.6453 15.5623 34.2665 14.4477C34.7421 13.5944 35.8243 12.5251 36.6433 11.6835C37.3401 10.9676 38.2268 10.7623 39.0407 10.3339C39.4679 10.2047 39.8559 10.0763 40.1976 9.92659C40.3698 9.86171 40.5394 9.81932 40.8426 9.77563" stroke="#48BCD6" stroke-width="2" stroke-linecap="round"/>
<path d="M0.913818 36.7756C9.91382 19.2756 20.9138 12.2756 40.4138 8.77563" stroke="#48BCD6"/>
<path d="M13.5495 27.4253C13.5772 27.3144 13.9518 26.7029 14.6641 25.752C14.982 25.3277 15.3487 25.1338 15.5201 25.0542C15.6915 24.9746 15.6915 25.0439 15.5736 25.2667C15.2493 25.8801 14.9082 26.4572 14.9348 26.7584C14.9466 26.8916 15.2941 26.8239 16.1367 26.477C16.9792 26.13 18.3929 25.4648 19.2321 25.0389C20.0712 24.613 20.293 24.4467 20.3033 24.3541C20.3281 24.131 19.5865 24.3165 18.8751 24.5603C18.4615 24.702 17.9695 24.9566 17.7679 25.071C17.5663 25.1855 17.6772 25.1716 17.8521 25.1229C18.0271 25.0742 18.2627 24.991 20.2205 24.1235C22.1784 23.256 25.8513 21.6066 27.8334 20.6946C29.8156 19.7826 29.9958 19.6578 30.1441 19.5381C30.2923 19.4184 30.4032 19.3076 30.2663 19.2574C29.7722 19.0763 29.0088 19.3046 28.1167 19.4166C27.56 19.4864 26.7811 19.473 26.3882 19.4525C25.9953 19.4319 26.0092 19.3764 26.148 19.2162C26.2868 19.056 26.5501 18.7926 27.7392 17.9155C28.9282 17.0383 31.0349 15.5553 32.1479 14.7497C33.2609 13.9442 33.3163 13.861 33.2964 13.8805C32.6479 14.5154 31.499 15.1748 31.268 15.2103C31.1879 15.2226 31.1895 15.0933 31.231 15.0017C31.2726 14.9102 31.3558 14.827 31.3917 14.8396C31.4276 14.8522 31.4137 14.9631 31.5175 14.9232C31.8916 14.7793 32.3348 14.1983 32.9556 13.5424C33.731 12.7231 34.2966 12.2083 34.4365 12.0336C34.535 11.9105 35.4504 11.4552 36.753 10.8534C37.1661 10.6625 37.03 10.6119 36.9103 10.6184C36.6751 10.6312 36.4962 10.7232 36.4258 10.7372C36.2006 10.7823 37.0392 10.5144 37.5716 10.3527C37.8844 10.2577 38.1741 10.2196 38.4611 10.073C38.9153 9.84112 39.3349 9.8836 39.7701 9.77881C40.0545 9.71031 40.2463 9.5476 40.5821 9.42874C40.6644 9.39961 40.7361 9.40732 40.6886 9.40732C40.6411 9.40732 40.4748 9.40732 40.4169 9.40039C40.3589 9.39346 40.4143 9.3796 40.4152 9.36553C40.4188 9.30431 40.248 9.33718 40.2056 9.35818C40.1923 9.36477 40.3018 9.36532 40.303 9.37225C40.3493 9.62656 38.9133 9.90712 38.2114 10.2677C37.9238 10.4155 37.5189 10.527 37.1829 10.6318C36.9702 10.6982 36.6793 10.7929 36.2192 10.9183C34.7494 11.3188 33.9203 11.8988 33.9953 11.9135C34.1555 11.9449 34.5553 11.7341 34.6792 11.7528C35.2839 11.844 33.767 12.4309 33.536 12.4454C33.3894 12.4546 33.5961 11.9996 33.7575 11.6566C33.8101 11.5451 33.6834 11.5216 33.5226 11.556C32.8113 11.7083 32.5624 11.829 32.4778 11.8503C32.3368 11.8856 32.8959 11.7316 32.9121 11.7658C32.976 11.9012 32.3461 11.9802 31.8476 12.2251C31.3491 12.47 30.7947 12.8026 30.4536 13.0779C30.1126 13.3532 30.0017 13.5611 28.3992 15.6363C26.7967 17.7116 23.7059 21.6478 21.9751 23.8142C20.2443 25.9805 19.9671 26.2577 18.8471 27.2044C17.7272 28.1511 15.7729 29.7588 14.5583 30.7188C13.3437 31.6787 12.9279 31.942 12.6444 32.1123C12.3609 32.2826 12.2223 32.3519 11.2846 32.4015C10.347 32.451 8.61445 32.4788 7.67344 32.5208C6.73243 32.5628 6.63541 32.6182 6.55078 32.6745C6.08993 32.981 5.64169 33.7514 5.36029 34.0882C5.04266 34.4684 4.45057 34.7468 4.15678 34.8102C3.71804 34.9049 3.34513 34.9425 3.05764 35.0828C2.65756 35.278 2.40685 35.4742 2.13343 35.7333C1.90289 35.9518 1.67857 36.1185 1.53094 36.3285C1.38088 36.5419 1.36945 36.8871 1.35538 37.0853C1.33017 37.4405 1.73233 36.5124 1.95661 36.302C2.21393 36.0606 2.61433 35.8539 2.83861 35.6443C2.90432 35.5829 2.95033 35.491 2.8888 35.4897C2.63364 35.4845 2.40601 35.6989 2.31508 35.7342C2.28148 35.7472 2.26573 35.6724 2.29324 35.6162C2.43671 35.3227 2.71261 35.1542 3.04819 34.8675C3.18269 34.7526 3.20317 34.58 3.20359 34.5305C3.20806 34.0028 2.22625 35.5557 1.84657 35.9364C1.73382 36.0495 1.60801 36.1328 1.53094 36.189C1.37642 36.3019 1.87177 35.701 2.08282 35.4202C2.23289 35.2206 2.40433 35.0004 2.59375 34.8041C2.8071 34.5829 2.88061 34.3284 3.04189 34.1321C3.22718 33.9065 3.55093 33.407 3.80482 32.9775C3.978 32.6846 4.21033 32.383 4.42768 32.0884C4.52661 31.9543 4.71391 31.7249 5.02807 31.4384C5.18325 31.2969 5.35609 31.1936 5.0329 31.5384C4.70971 31.8832 3.89197 32.6871 3.78949 32.9141C3.68701 33.1411 4.32457 32.7669 4.91635 32.4702C6.01322 31.9202 6.77149 31.6959 7.13479 31.605C7.30256 31.563 7.44265 31.5556 8.56741 30.5298C9.69217 29.5039 11.7989 27.4665 12.8495 26.5001C13.9002 25.5336 13.8309 25.7 13.6704 26.0005C13.51 26.301 13.2605 26.7306 12.7647 27.4163C12.2689 28.1019 11.5343 29.0306 11.3014 29.4258C11.0685 29.821 11.3596 29.6547 11.5719 29.5413C11.7842 29.4279 11.9089 29.3724 11.9593 29.3785C12.0097 29.3846 11.982 29.4539 11.4272 29.8153C10.8724 30.1767 9.79129 30.8282 9.42841 31.0459C8.82691 31.4069 10.8018 30.3951 11.4102 30.1083C11.6544 29.9931 11.7829 29.9739 11.6254 30.2229C11.4679 30.472 11.0244 30.9987 10.6365 31.4987C10.2487 31.9987 9.92989 32.4561 9.80725 32.6571C9.73565 32.7744 10.3524 32.5233 10.8104 32.4164C11.5763 32.2377 9.49015 33.3188 9.44059 33.4236C9.41787 33.4716 9.57121 33.5145 9.61447 33.5706C9.69164 33.6706 9.19951 33.9198 8.542 34.1577C8.19755 34.2824 7.43803 34.5485 6.54805 34.9062C6.48977 34.9296 7.20241 34.567 8.58904 34.2111C9.46824 33.9854 10.738 33.8135 11.36 33.7064C11.982 33.5993 11.9266 33.5993 11.4476 33.6548C10.0669 33.8146 9.08401 33.9353 9.04159 33.8591C9.00399 33.7915 9.13777 33.6304 9.56176 33.1222C9.98575 32.614 10.7481 31.7547 11.4457 31.0348C12.1433 30.3149 12.7531 29.7605 14.1692 28.8096C15.5852 27.8588 17.7889 26.5282 18.7856 25.8774C19.7823 25.2266 19.5051 25.2959 19.0296 25.5395C17.857 26.1403 17.0649 26.7382 16.8964 26.9062C16.8508 26.9517 16.9498 26.9633 17.5539 26.5406C18.1581 26.1179 19.2808 25.2724 20.0947 24.7398C21.3302 23.9315 22.0456 23.7717 22.3186 23.7365C22.4109 23.7245 22.4115 23.7982 22.3907 23.8822C22.3699 23.9662 22.3283 24.0771 21.9257 24.5223C21.5232 24.9675 20.7609 25.7436 20.3196 26.2197C19.8784 26.6958 19.7814 26.8482 20.5215 26.4763C21.2615 26.1044 22.8415 25.2035 23.6001 24.8157C24.3586 24.4278 24.2477 24.5802 23.8233 24.9914C23.3989 25.4026 22.6643 26.0679 22.1681 26.4868C21.4586 27.0858 21.1519 27.2708 21.1027 27.2993C20.4051 27.7048 22.3821 25.4816 22.6282 25.248C22.8898 24.9998 22.1057 26.1342 21.6865 26.6863C21.3472 27.1333 20.6802 27.6735 19.9385 28.2475C19.6726 28.4532 19.6126 28.461 19.6117 28.392C19.6109 28.3229 19.6663 28.1704 19.5909 28.2027C19.5156 28.2351 19.3077 28.4568 19.9213 28.4394C20.5349 28.422 21.9763 28.1586 22.6149 28.0576C23.2536 27.9566 23.0457 28.0259 22.8277 28.1171C22.3812 28.3037 21.9931 28.461 21.4847 28.6278C20.5924 28.9204 19.9629 29.3149 19.6489 29.4264C18.9721 29.6668 18.7029 29.721 18.0113 29.9583C17.7153 30.0599 17.4706 30.1268 17.4758 30.0791C17.5404 29.4925 18.5172 29.3166 18.7354 29.1761C18.749 29.1674 18.4962 29.2574 18.3263 29.3559C18.1564 29.4543 18.0594 29.5514 18.8341 28.7004C19.6088 27.8495 21.2581 26.0477 22.7176 24.5998C24.1771 23.1518 25.3968 22.1123 26.337 21.3828C27.2772 20.6532 27.9009 20.2652 27.4252 20.8622C26.9496 21.4592 25.3557 23.0531 24.5761 23.8049C23.7966 24.5567 23.8798 24.4181 23.9919 24.2774C24.2259 23.9839 24.427 23.786 24.4138 23.7642C24.0528 23.1683 23.2691 24.8037 22.8466 25.1565C22.7773 25.2143 22.7206 25.2682 22.8375 25.2067C22.9545 25.1451 23.2456 24.965 23.3193 24.9276C23.393 24.8902 23.2405 25.0011 22.4551 25.3077C21.6697 25.6143 20.256 26.1132 19.3891 26.4465C18.229 26.8925 17.807 27.2002 17.5691 27.3959C17.4761 27.4724 17.4697 27.5362 17.4903 27.6063C17.6625 28.193 18.9948 27.8592 19.0998 27.9079C19.145 27.9289 19.1355 27.9982 19.1147 28.0822C19.0655 28.2808 18.7877 28.6547 18.0844 29.317C17.6292 29.7457 16.8683 30.2427 16.4483 30.5487C16.0283 30.8546 15.9451 30.9239 15.8746 30.9666C15.7564 31.038 16.0795 30.871 16.9032 30.5705C18.4117 30.0201 18.9796 29.9743 19.218 29.7996C19.3257 29.7206 18.3593 29.6093 17.1972 29.547C16.8067 29.526 16.8389 29.3598 16.9155 29.1293C16.9922 28.8987 17.1169 28.566 17.5623 27.8611C18.0078 27.1561 18.7701 26.0889 19.9458 24.7283C21.1216 23.3677 22.6878 21.7461 24.0768 20.481C25.4657 19.216 26.6299 18.3567 27.0495 18.018C27.1613 17.9277 26.1831 18.5587 25.1975 19.3487C24.7726 19.6893 24.4753 19.8754 24.4086 19.8714C23.7428 19.8316 25.3347 18.943 25.7824 18.6702C25.954 18.5656 26.0083 18.5222 25.3162 19.0066C24.624 19.4911 23.1826 20.5029 22.5994 20.8439C22.0162 21.185 22.335 20.8246 23.213 20.0153C24.091 19.2059 25.5186 17.9585 26.4619 17.1773C27.7887 16.0786 28.291 15.7917 28.2986 15.8535C28.4182 16.83 27.1881 17.5108 26.8376 17.8264C26.7563 17.8996 26.8475 17.7678 27.3063 17.4125C27.7652 17.0572 28.5829 16.4751 29.1359 16.0366C29.6888 15.5981 29.9521 15.3209 30.1155 15.1712C30.2789 15.0215 30.3343 15.0076 30.3629 15.1321C30.5759 16.0607 30.042 17.006 29.9368 17.4211C29.9171 17.499 29.9017 17.5679 30.0193 17.4927C30.1369 17.4176 30.3864 17.1958 30.4872 17.1231C30.525 17.0959 30.2398 17.4827 29.8551 17.9232C29.5377 18.2867 31.4129 16.0996 31.4207 16.1546C31.4684 16.4928 30.9387 16.7561 30.7497 16.9104C30.6912 16.9582 30.8518 16.5083 31.1176 16.095C31.2029 15.9624 31.2449 16.0282 31.2037 16.1676C30.9959 16.8719 30.7842 17.1202 30.693 17.212C30.306 17.6017 31.0626 15.7544 31.1193 15.2191C31.1885 14.5657 31.4961 13.8093 31.6506 12.9756C31.6756 12.8407 31.3306 13.1302 30.3098 13.398C29.5164 13.606 31.4268 12.2356 31.4832 12.1867C31.7374 11.9665 30.6737 12.5002 30.4269 12.5924C30.115 12.7089 30.9089 11.9836 30.882 12.0178C30.4431 12.5768 29.9043 12.6396 29.6149 12.7463C29.6051 12.7499 29.6623 12.7119 29.6701 12.6768C29.6882 12.595 29.5935 12.5019 29.5588 12.4179C29.4433 12.1379 28.8946 12.6548 28.6703 12.7669C28.4509 12.8766 28.126 13.1436 27.8026 13.3616C27.4565 13.5949 27.2146 13.7602 26.9136 13.9566C26.5409 14.1998 25.9983 14.5574 25.333 14.9499C25.024 15.1321 24.6538 15.3978 23.4029 16.398C22.3698 17.224 20.5996 18.7842 19.4152 19.8748C18.2308 20.9653 17.7041 21.5613 16.9962 22.2495C16.2883 22.9376 15.4151 23.6999 14.8267 24.1896C14.2383 24.6794 13.9611 24.8734 13.5688 25.1882C13.1765 25.503 12.6775 25.9326 12.3027 26.2302C11.7087 26.7018 11.0752 27.1561 10.3142 27.7916C9.11476 28.7931 8.69425 29.0054 8.38429 29.1958C8.12948 29.3524 7.35361 29.8017 6.7822 30.2097C6.6178 30.3271 6.40021 30.5846 6.26497 30.6644C6.12973 30.7442 6.10201 30.661 6.08773 30.5489C6.07345 30.4367 6.07345 30.2981 6.0388 30.2614C5.84227 30.0529 5.68201 30.7559 5.54887 31.2585C5.27567 32.2896 5.48545 32.5623 5.52703 32.7648C5.65526 33.3891 6.59005 33.501 6.8704 33.6686C7.15549 33.839 7.40275 33.9769 7.56319 34.0399C7.65034 34.0741 7.76521 34.0613 7.85698 33.9851C8.32651 33.5951 8.31289 32.8601 8.66884 32.1321C8.82575 31.8111 9.01303 31.6677 9.11761 31.5493C9.27509 31.371 10.0009 30.8592 11.0156 30.2505C11.4393 29.9963 11.6994 29.8344 12.3747 29.4239C12.8492 29.1355 13.5629 28.6391 14.2114 28.1259C14.8599 27.6126 15.4143 27.086 15.7899 26.6968C16.1656 26.3077 16.3458 26.0721 16.7366 25.7289C17.1274 25.3858 17.7234 24.9423 18.2661 24.4713C18.8087 24.0002 19.2799 23.5151 19.5781 23.1474C19.8763 22.7797 19.9872 22.5441 20.4186 22C20.8499 21.4559 21.5983 20.6104 22.0463 20.0848C22.6358 19.393 22.8861 18.9438 23.1446 18.5173C23.4691 17.9819 24.0747 17.7527 24.8237 17.4652C25.3587 17.2599 26.1595 17.1219 26.8263 16.9121C27.0533 16.8407 27.3515 16.772 27.7633 16.6532C28.2052 16.5256 29 16.3671 29.8606 16.0872C30.2589 15.9576 30.4326 15.9593 30.621 16.0217C31.2973 16.2456 31.3852 17.1336 31.3856 17.5398C31.386 17.8947 31.0786 18.1005 30.7846 18.2966C30.382 18.5652 29.7909 18.9825 29.4423 19.2124C29.2284 19.3535 28.9551 19.5671 27.1976 20.5335C25.4401 21.5 22.2107 23.2186 20.4223 24.1455C18.634 25.0725 18.3845 25.1556 18.159 25.2539C17.7292 25.4412 17.4147 25.605 17.2188 25.5223C16.8781 25.3784 17.2719 24.642 17.6623 24.0975C17.8769 23.7981 18.219 23.5252 18.6604 23.2297C19.6208 22.5869 20.2829 22.3295 20.2491 22.3986C19.7458 23.4269 18.534 23.5332 18.4639 23.4918C18.3085 23.4001 18.9906 22.6982 19.8919 21.8316C20.2989 21.4402 20.6407 21.1866 20.521 21.1203C20.4013 21.0539 19.8192 21.1925 19.5886 21.16C19.3581 21.1274 19.4967 20.9195 19.7274 20.6877C19.9582 20.4558 20.277 20.2064 20.6838 19.9323C21.0906 19.6583 21.5757 19.3672 21.978 19.148C22.3804 18.9287 22.6853 18.7901 23.1819 18.594C23.6786 18.3978 24.3577 18.1484 24.8531 17.902C25.679 17.4914 26.0088 17.108 26.3563 16.8298C27.0933 16.2398 27.8135 15.8064 28.1907 15.5484C28.3846 15.4157 28.5401 15.221 28.5149 15.1212C28.4897 15.0215 28.2679 15.0076 27.6478 15.1529C27.0277 15.2982 26.0159 15.6032 25.5848 15.6979C25.1536 15.7926 25.3338 15.6678 25.4821 15.5759C25.7354 15.4187 25.9525 15.3297 26.0025 15.336C26.069 15.3444 25.7614 15.5225 25.6822 15.5108C25.1646 15.4339 26.1889 14.297 26.9309 13.3864C27.0711 13.2143 27.1146 13.1604 27.0875 13.125C26.9153 12.8993 26.4737 13.1865 25.4184 13.752C24.7625 14.1036 24.456 14.8799 24.2813 15.0906C24.0361 15.3861 23.5345 15.6074 23.1057 15.8537C22.6969 16.0885 22.146 16.365 22.062 16.3655C21.6835 16.3674 22.6038 15.263 23.3609 14.6313C23.5087 14.5079 23.6135 14.4624 23.6981 14.42C24.0051 14.2661 22.1334 15.1748 21.8386 15.3356C21.4765 15.5332 21.2926 15.7208 21.0893 15.9303C20.8097 16.2186 20.5786 16.4062 19.9937 17.0675C19.6057 17.5063 18.8977 18.2954 18.4089 18.8132C17.6914 19.5732 17.0531 20.0585 16.5348 20.3884C16.3944 20.4778 16.4323 20.261 16.4955 20.1127C16.6097 19.845 16.8519 19.573 17.27 19.2101C18.316 18.3023 18.7843 18.0744 19.0086 17.8502C19.0649 17.7939 19.1203 17.7384 19.1835 17.6822C19.2468 17.6259 19.3161 17.5704 19.1646 17.6181C18.155 17.936 17.6831 18.3785 17.2606 18.7513C16.8945 19.0742 16.0728 19.4714 15.7204 19.7385C15.5693 19.8531 15.0934 20.2954 14.4153 20.9943C13.9206 21.5042 13.4407 22.1295 12.8745 22.752C12.5059 23.1572 11.8737 23.5857 11.1951 24.201C10.924 24.4469 10.8354 24.5945 10.5429 24.957C10.2504 25.3194 9.76525 25.9016 9.46684 26.2846C9.05085 26.8186 8.59723 27.5181 8.00944 28.3229C7.48958 29.0346 6.73285 29.6639 6.56401 29.9094C6.521 29.9719 6.46657 30.0419 6.43801 30.043C6.18731 30.0522 6.64633 29.4149 7.14004 28.9136C7.50346 28.5446 8.17429 28.0242 8.60689 27.6903C9.54597 26.9655 10.0341 26.629 10.3982 26.2019C10.4736 26.1134 10.4969 26.0544 10.4211 26.1368C9.58819 27.0412 8.49601 27.5652 8.37736 27.5654C8.3127 27.5655 8.24485 27.5102 8.20222 27.4472C8.15959 27.3842 8.14573 27.301 8.15245 27.2166C8.17955 26.8761 8.55061 26.7122 8.74717 26.634C8.95501 26.5514 8.30155 27.1435 7.98655 27.3819C7.88936 27.4554 7.87945 27.3707 7.94182 27.2588C8.30662 26.6041 8.98321 26.2367 9.50842 25.7334C10.1196 25.1476 10.7481 24.5424 11.0284 24.2902C11.4889 23.876 12.2878 23.311 12.7078 22.9607C12.8225 22.865 12.9312 22.7516 13.0022 22.6667C13.3421 22.2605 11.2122 23.757 11.1349 23.7644C10.7428 23.8017 12.1315 22.9204 12.5404 22.5682C12.7765 22.3648 12.9329 22.1904 13.1076 21.9315C13.2533 21.7156 13.381 21.5319 13.4579 21.5172C13.8982 21.433 13.2151 22.4945 12.9285 23.0185C12.7967 23.2593 12.7389 23.4731 13.0427 23.4139C13.3466 23.3547 14.0257 23.022 14.9092 22.6982C15.7927 22.3744 16.8599 22.0695 17.382 21.9263C17.904 21.783 17.8486 21.8108 17.5082 21.9498C16.5459 22.3428 15.846 22.6092 15.762 22.554C15.3762 22.3002 16.1501 21.5907 16.3706 21.3286C16.6219 21.03 15.6096 22.1153 14.9481 23.2024C14.5209 23.9045 13.8015 24.844 13.4029 25.3575C13.0043 25.8709 12.9211 25.9125 12.8506 25.9408C12.78 25.9692 12.7246 25.983 12.6614 25.9763C12.5982 25.9696 12.5289 25.9419 12.4793 25.8514C12.1369 25.2261 12.4566 24.3887 12.5971 24.2195C12.6585 24.1455 12.3756 24.6508 12.2823 24.9734C12.2446 25.104 12.8405 24.9356 12.9096 24.9339C13.182 24.9273 12.276 25.185 12.3237 25.1577C12.6833 24.9518 13.1694 24.752 13.7408 24.6332C14.6021 24.454 15.2148 24.5135 15.3475 24.4786C15.4717 24.446 15.6759 24.3736 16.3435 24.1445C17.765 23.6566 18.7008 23.1833 18.7711 23.1972C19.4674 23.3344 17.1342 24.1632 17.043 24.1287C17.0489 23.9696 17.1468 23.786 17.2864 23.6602C17.3568 23.6037 17.4261 23.5622 17.4975 23.5193" stroke="#48BCD6" stroke-width="2" stroke-linecap="round"/>
<path d="M1.31885 36.4451C1.35136 36.2678 1.45452 36.042 1.5344 35.9201C1.58991 35.8354 1.63749 35.6674 1.74537 35.498C1.81 35.3965 1.92771 35.1894 2.04572 34.9959C2.09538 34.9145 2.18133 34.7759 2.327 34.6253C2.4498 34.4983 2.64099 34.2976 2.7284 34.1561C2.78737 34.0605 2.84338 33.9731 2.90433 33.8699C2.96118 33.7737 3.012 33.6545 3.09651 33.5463C3.12924 33.5043 3.18033 33.4346 3.36688 33.2245C3.55344 33.0145 3.87391 32.6661 4.2041 32.3073" stroke="#B7D3D9" stroke-width="0.25" stroke-linecap="round"/>
<path d="M10.0969 35.0336C10.2954 34.9815 10.4831 34.8358 10.7393 34.6316C11.1612 34.2953 11.4251 34.2593 11.7546 34.1549C11.9751 34.0851 12.1993 33.9039 12.4194 33.7471C12.8742 33.423 13.2776 33.1296 13.7842 32.842C13.9058 32.7836 13.9784 32.7629 14.052 32.7315C14.1256 32.7001 14.1982 32.6587 14.2729 32.616" stroke="#B7D3D9" stroke-width="0.25" stroke-linecap="round"/>
<path d="M22.594 27.5709C23.6656 26.5477 23.7855 26.3555 23.9302 26.1746C24.1556 25.893 24.3506 25.4414 24.5562 25.1153C24.8564 24.6391 25.2538 24.489 25.5373 24.338C26.0387 24.0708 26.2055 23.8741 26.393 23.7117C26.4829 23.6335 26.5917 23.537 26.7237 23.4229C26.7962 23.3683 26.8796 23.3206 26.9656 23.2715" stroke="#B7D3D9" stroke-width="0.25" stroke-linecap="round"/>
<path d="M31.0784 18.8834C31.6037 18.2456 31.8553 17.8439 32.0864 17.3252C32.355 16.7222 32.4067 16.4525 32.6505 16.0333C32.8816 15.6362 33.0332 15.4123 33.19 15.2361C33.4093 15.073 33.6473 14.9102 33.7976 14.7976C33.8609 14.747 33.8982 14.7097 33.9365 14.6714" stroke="#B7D3D9" stroke-width="0.25" stroke-linecap="round"/>
<path d="M35.4585 10.0795C36.1044 9.84701 36.6438 9.70139 36.9893 9.64287C37.1281 9.61018 37.1927 9.57142 37.3422 9.55146C37.4917 9.53149 37.7243 9.53149 37.9638 9.53149" stroke="#B7D3D9" stroke-width="0.25" stroke-linecap="round"/>
<path d="M8.51611 26.2175C9.0896 25.6832 9.37576 25.3453 9.68286 24.8233C9.92827 24.4062 10.0553 24.1702 10.2378 23.9738C10.4461 23.7496 10.6159 23.5564 10.7925 23.3346C10.8383 23.2819 10.8899 23.2432 10.9618 23.2038C11.0336 23.1645 11.124 23.1257 11.2172 23.0858" stroke="#B7D3D9" stroke-width="0.25" stroke-linecap="round"/>
<path d="M15.2883 19.9151C16.018 19.3028 16.6412 18.8346 17.1071 18.507C17.4146 18.2907 17.6625 18.0889 17.9283 17.9006C18.4654 17.5961 18.8761 17.358 19.2323 17.1506C19.5239 16.9948 20.0407 16.7364 20.5731 16.4702" stroke="#B7D3D9" stroke-width="0.25" stroke-linecap="round"/>
<path d="M11.136 33.1087C11.485 32.9992 11.8052 32.859 11.9757 32.754C12.1388 32.6535 12.2956 32.4893 12.4509 32.3589C12.4861 32.3287 12.5159 32.299 12.5559 32.2788C12.596 32.2585 12.6455 32.2486 12.6965 32.2384" stroke="#6CC7DB" stroke-width="0.25" stroke-linecap="round"/>
<path d="M23.2302 25.3661C23.2899 25.2764 23.3899 25.1368 23.4999 24.9317C23.5861 24.7708 23.7098 24.6266 23.83 24.4913C23.9644 24.3399 24.1395 24.1963 24.4146 23.9964C24.4802 23.946 24.5297 23.9064 24.6344 23.782C24.7391 23.6576 24.8976 23.4496 25.0609 23.2354" stroke="#6CC7DB" stroke-width="0.25" stroke-linecap="round"/>
<path d="M30.0725 17.9986C30.5524 17.6087 30.6919 17.4494 30.8223 17.3038C30.9786 17.1294 31.0526 16.869 31.1275 16.7038C31.2392 16.4575 31.3624 16.1193 31.4527 15.9036C31.5427 15.7382 31.6228 15.6182 31.6776 15.5334C31.7126 15.4882 31.7621 15.4387 31.8131 15.3577" stroke="#6CC7DB" stroke-width="0.25" stroke-linecap="round"/>
<path d="M36.1345 10.796C36.3128 10.7366 36.4442 10.6961 36.5439 10.6712C36.6039 10.6562 36.6831 10.6364 36.7437 10.6262C36.8044 10.6159 36.844 10.6159 36.9748 10.5859" stroke="#6CC7DB" stroke-width="0.25" stroke-linecap="round"/>
<path d="M17.4683 19.319C17.7657 19.1902 18.3878 18.8496 18.5579 18.7441C18.7775 18.608 18.9382 18.4493 19.0833 18.2793C19.1482 18.2092 19.2284 18.1489 19.343 18.089C19.4081 18.0589 19.4874 18.0291 19.569 17.9985" stroke="#6CC7DB" stroke-width="0.25" stroke-linecap="round"/>
<path d="M10.2056 25.4111C10.3649 25.1323 10.5849 24.8115 10.7003 24.6316C10.7848 24.5318 10.8754 24.4313 10.9503 24.3364C10.9855 24.2911 11.0152 24.2515 11.0459 24.2107" stroke="#6CC7DB" stroke-width="0.25" stroke-linecap="round"/>
<path d="M2.70264 35.2187C3.1194 34.9152 3.27589 34.7237 3.40199 34.5847C3.548 34.4238 3.6238 34.2631 3.71939 34.1498C3.7456 34.1236 3.77142 34.0978 3.81054 34.0587C3.84966 34.0196 3.9013 33.9679 3.98058 33.8625" stroke="#6CC7DB" stroke-width="0.25" stroke-linecap="round"/>
<path d="M1.68555 36.9401C1.93722 37.088 2.14509 37.0533 2.41045 37.0358C2.65931 37.0194 2.84091 36.8452 3.16223 36.6842C3.39358 36.5684 3.71774 36.3069 3.95377 36.1971C4.09628 36.1308 4.23231 36.1055 4.50407 36.1012C5.61512 36.0836 5.7708 36.0101 5.94463 35.9926C6.15366 35.9318 6.34405 35.8969 6.6827 35.8148C6.80437 35.7673 6.9679 35.6898 7.13638 35.61" stroke="#6CC7DB" stroke-width="0.25" stroke-linecap="round"/>
<path d="M40.0618 8.8833C40.2924 8.93953 40.4362 9.02165 40.5722 9.11147C40.7173 9.20727 40.8062 9.24273 40.8396 9.26568C40.8578 9.27822 40.8577 9.31406 40.84 9.36028C40.7477 9.601 40.4741 9.82154 40.3394 9.92823C40.2422 10.0052 40.047 10.0181 39.7727 10.1538C39.6347 10.222 39.5281 10.285 39.4075 10.3595C39.3037 10.4235 39.2147 10.5007 39.1326 10.57C39.0246 10.6703 38.8817 10.7622 38.7603 10.8345C38.7421 10.855 38.7319 10.8855 38.7214 10.9169" stroke="#6CC7DB" stroke-width="0.25" stroke-linecap="round"/>
<path d="M39.2402 9.3199C39.287 9.31523 39.3297 9.31282 39.3581 9.32334C39.4178 9.34551 39.3795 9.43293 39.3772 9.48378C39.3419 9.53696 39.3041 9.57938 39.2687 9.60077C39.2592 9.60318 39.2499 9.60318 39.2402 9.60318" stroke="#ABDAE5" stroke-width="0.25" stroke-linecap="round"/>
<path d="M42.3403 7.91353C42.3403 7.98973 42.3535 8.1963 42.3902 8.31871C42.3972 8.34178 42.4102 8.35711 42.4335 8.37058C42.4889 8.40265 42.6066 8.40417 42.8357 8.38269C42.9897 8.36826 43.2169 8.31826 43.3723 8.26474C43.6172 8.18042 43.6953 8.05402 43.7153 8.00235C43.7236 7.98094 43.7221 7.9672 43.6676 7.95874C43.5056 7.93359 43.3521 7.95018 43.2721 7.97341C43.0916 8.02591 43.0346 8.16035 43.023 8.1953C43.0169 8.21342 43.0146 8.23355 43.0526 8.23715C43.2999 8.26065 43.4148 8.15064 43.4499 8.12401C43.4642 8.11315 43.4618 8.09737 43.4288 8.08726C43.3326 8.05784 43.2516 8.05382 43.2366 8.02558C43.2277 8.00878 43.2315 7.98082 43.215 7.96555C43.1189 7.87679 42.9251 7.9636 42.8096 7.9653C42.7872 7.96563 42.7745 7.94718 42.7809 7.92219C42.7982 7.85481 42.8542 7.8102 42.8858 7.78522C42.9523 7.73263 43.0308 7.74672 43.2673 7.74166C43.3348 7.74021 43.5268 7.7333 43.8004 7.7366C43.9699 7.73865 44.102 7.77655 44.2257 7.79998C44.3061 7.80669 44.4056 7.8134 44.4846 7.82171C44.4996 7.82341 44.5162 7.82341 44.5332 7.82341" stroke="#61666B" stroke-width="3" stroke-linecap="round"/>
<path d="M42.4406 8.16391C41.9581 8.24321 41.6336 8.32372 41.5118 8.3838C41.4669 8.40597 41.4529 8.40422 41.4527 8.41744C41.4513 8.5103 41.4993 8.68319 41.4711 8.83608C41.4641 8.87367 41.4393 8.89476 41.4293 8.90482C41.4291 8.90497 41.439 8.89506 41.4458 8.75943C41.4656 8.36313 41.4527 8.11695 41.436 8.16191C41.3842 8.30208 41.189 8.37408 41.1823 8.36432C41.0839 8.22227 41.2956 8.06097 41.3206 8.06183C41.375 8.06367 41.3291 8.27746 41.3324 8.32782C41.3336 8.34637 41.3557 8.22419 41.3674 8.16771C41.3749 8.13148 41.3758 8.0782 41.3461 8.12861C41.3164 8.17903 41.2536 8.33433 41.251 8.30364C41.2484 8.27295 41.3079 8.05156 41.3435 7.90612C41.3941 7.6991 41.3992 7.6167 41.3975 7.59992C41.3959 7.583 41.3396 7.74556 41.2546 7.94883C41.1904 8.10239 41.1558 8.22679 41.1174 8.3135C41.0964 8.36095 41.0657 8.43696 41.0207 8.57174C40.971 8.7206 40.9586 8.92039 40.9619 9.10554C40.9632 9.17509 40.9718 9.19485 40.9802 9.21002C40.9886 9.22519 40.9985 9.23511 41.0201 9.22699C41.1386 9.18256 41.2612 9.03925 41.3656 8.94187C41.4488 8.86414 41.4958 8.8482 41.5209 8.84975C41.5326 8.85048 41.5294 8.88104 41.5046 8.90287C41.3861 9.00727 41.3059 8.96826 41.2858 8.98483C41.2208 9.03866 41.2359 9.1548 41.2058 9.21984C41.1947 9.24372 41.2087 9.25513 41.237 9.26354C41.3902 9.30918 41.6245 9.37509 41.8025 9.42876C41.9595 9.47608 42.0793 9.39912 42.1683 9.38054C42.3086 9.35127 42.5701 9.32903 42.6555 9.28552C42.739 9.24303 42.8172 9.24211 43.0437 9.23035C43.1644 9.22407 43.2348 9.20527 43.3226 9.19205C43.5339 9.16022 43.6854 9.11855 43.7236 9.10524C43.7828 9.08458 43.9182 9.05868 44.0948 9.01862C44.3206 8.9674 44.4458 9.04145 44.6644 9.05177C44.7068 9.05377 44.7199 9.04185 44.6887 9.04341C44.6575 9.04496 44.5815 9.05487 44.4383 9.08972C44.2951 9.12456 44.0869 9.18404 43.9499 9.21963C43.7547 9.27035 43.5964 9.3084 43.4313 9.36838C43.32 9.40885 43.2651 9.43887 43.2104 9.45379C43.1113 9.48077 42.9126 9.57174 42.6924 9.67353C42.5939 9.71905 42.3956 9.71593 42.1203 9.71263C41.9626 9.71073 41.8836 9.66947 41.7187 9.62596C41.553 9.58227 41.4929 9.54911 41.3963 9.50921C41.3273 9.48071 41.2825 9.43567 41.2526 9.41569C41.227 9.39864 41.4437 9.43176 41.8601 9.50681C42.2005 9.56816 42.3737 9.55242 42.4119 9.5408C42.4741 9.52189 42.5767 9.49574 42.7314 9.46586C42.8205 9.44863 42.929 9.41614 43.1008 9.39752C43.2726 9.37889 43.5039 9.37228 43.6347 9.36723C43.8598 9.35852 44.0715 9.30219 44.2224 9.27546C44.3361 9.25532 44.4624 9.2289 44.5862 9.19706C44.7408 9.15728 44.7998 9.09532 44.8652 9.04856C44.9223 9.00765 44.9935 8.98177 45.0554 8.94177C45.2241 8.83271 45.3974 8.64153 45.4592 8.56643C45.5496 8.45664 45.5778 8.36117 45.6312 8.29763C45.6771 8.24287 45.708 8.16751 45.7547 8.11404C45.8031 8.05858 45.8282 7.99068 45.8549 7.93216C45.9001 7.83332 45.9617 7.7003 45.9768 7.63512C45.9803 7.6196 45.9884 7.60678 45.9918 7.59006C45.9952 7.57334 45.9952 7.55351 45.9688 7.52513C45.899 7.45021 45.716 7.37007 45.5226 7.28501C45.3711 7.21842 45.2746 7.19945 45.1677 7.12781C45.317 7.14238 45.6031 7.26854 45.7114 7.34434C45.7181 7.35606 45.7214 7.36927 45.7048 7.41293" stroke="#61666B" stroke-linecap="round"/>
<path d="M42.362 8.20241C42.1442 8.25366 41.9551 8.22881 41.8258 8.12553C41.6595 7.99269 41.7019 7.82774 41.6214 7.56305C41.563 7.37139 41.6113 7.22556 41.637 7.17072C41.7022 7.03176 42.1193 6.84546 42.3199 6.71423C42.515 6.58663 41.8384 6.91418 41.7414 7.00144C41.7018 7.0371 41.6829 7.05667 41.7467 7.01532C41.961 6.87633 42.2569 6.6954 42.509 6.58222C42.6656 6.51193 42.923 6.48787 43.4448 6.44905C43.7738 6.42457 44.2357 6.43585 44.4861 6.43264C44.8469 6.42803 45.0914 6.35858 45.5601 6.34199C45.7785 6.33425 45.9463 6.37101 46.0564 6.40323C46.2922 6.47226 46.4561 6.78489 46.6646 6.86264C46.7302 6.88707 46.7749 6.9532 46.8201 7.01454C46.858 7.06588 46.8657 7.13432 46.8593 7.21178C46.844 7.39736 46.653 7.60605 46.5651 7.78115C46.474 7.96278 46.3614 8.04012 46.2386 8.163C46.0554 8.34637 45.9925 8.4738 45.9116 8.62561C45.8673 8.70866 45.7792 8.80362 45.679 8.89739C45.6383 8.9355 45.6109 8.94631 45.6682 8.87603C45.7254 8.80576 45.8664 8.65201 45.9486 8.59202C46.0308 8.53204 46.05 8.57048 46.0439 8.62551C46.0378 8.68055 46.0057 8.75101 45.9764 8.79693C45.9471 8.84284 45.9215 8.86206 45.6873 8.93602C45.4531 9.00998 45.011 9.13811 44.7545 9.22012C44.498 9.30214 44.4403 9.33417 44.4458 9.34107C44.494 9.4011 44.7418 9.25128 45.0195 9.15752C45.2509 9.07939 45.4927 9.06337 45.7444 8.9828C46.1966 8.83803 46.2507 8.6753 46.3412 8.55553C46.4338 8.43294 46.5481 8.32587 46.6035 8.22541C46.6697 8.10517 46.8199 7.98964 46.9011 7.86958C46.9735 7.76237 46.9756 7.64643 47.0208 7.54276C47.0439 7.48985 47.0599 7.31738 47.0503 7.07491C47.0448 6.93839 46.9696 6.87613 46.9082 6.8309C46.8125 6.76031 46.4738 6.68258 46.1013 6.57882C45.8122 6.4983 46.7741 6.99843 47.0621 7.14063C47.1439 7.18103 47.1697 7.23798 47.1924 7.30564C47.2716 7.54257 47.1639 7.87744 47.0667 8.10137C46.9935 8.26988 46.8987 8.49205 46.8368 8.65492C46.7818 8.79969 46.6398 8.85545 46.5105 8.9301C46.2771 9.06485 46.0003 9.08841 45.6472 9.17596C45.3865 9.2406 45.171 9.30855 45.035 9.33155C44.811 9.36945 44.5242 9.40561 44.1913 9.43502C43.9606 9.48365 43.8187 9.50928 43.6986 9.53859C43.6694 9.54189 43.6374 9.54189 43.5461 9.5613" stroke="#61666B" stroke-linecap="round"/>
<path d="M49.1176 8.51306C48.9382 8.43618 48.4871 8.39658 47.8506 8.42221C47.3812 8.44111 47.1381 8.58391 47.0283 8.67409C46.8958 8.78292 46.8787 8.92694 46.869 8.98178C46.8639 9.01073 46.8657 9.04303 47.1156 9.05312C47.3654 9.06322 47.8651 9.0504 48.2634 9.00857C48.9491 8.93656 49.2597 8.80444 49.2889 8.76251C49.318 8.72083 49.0229 8.68777 48.651 8.70058C48.3637 8.71049 48.2702 8.91374 48.2217 9.0042C48.2016 9.04169 48.2052 9.06904 48.2468 9.08224C48.3666 9.1202 48.496 9.08263 48.6023 9.03439C48.7739 8.95647 48.8716 8.84987 48.8749 8.78532C48.8766 8.7527 48.859 8.72077 48.83 8.70427C48.7642 8.66686 48.6395 8.7198 48.5199 8.78115C48.4373 8.82349 48.3803 8.92014 48.3189 9.02352C48.2764 9.09497 48.2828 9.1727 48.3021 9.23735C48.3591 9.42932 48.8058 9.27676 49.0711 9.2027C49.3024 9.13812 49.4216 8.97295 49.4346 8.88258C49.4411 8.83752 49.422 8.79221 49.4026 8.7531C49.3651 8.67767 49.1774 8.61692 48.5472 8.56838C48.072 8.53178 47.2765 8.55188 46.7808 8.5743C46.2851 8.59673 46.1121 8.64157 46.0134 8.68069C45.9147 8.7198 45.8955 8.75183 45.8856 8.79076C45.8648 8.8725 45.8821 8.94635 45.9046 8.98838C45.9154 9.00865 45.9463 9.01119 46.219 9.01449C46.4916 9.01779 47.0105 9.01779 47.2939 9.0242C47.6097 9.03134 47.8152 9.05662 48.0677 9.0406C48.1486 9.03547 48.1279 8.99255 48.0027 8.97605C47.6496 8.92951 47.2555 8.98518 46.9969 9.04642C46.8261 9.0869 46.7176 9.25637 46.6108 9.40498C46.5672 9.46567 46.5745 9.51514 46.5809 9.55106C46.5873 9.58697 46.6001 9.6126 46.6612 9.6258C46.8278 9.66182 47.0138 9.59416 47.1526 9.49418C47.2239 9.44286 47.285 9.37498 47.318 9.31636C47.351 9.25773 47.351 9.20648 47.3446 9.16727C47.3382 9.12805 47.3254 9.10243 47.2964 9.08282C47.2674 9.06322 47.2225 9.0504 47.1834 9.05021C47.1443 9.05001 47.1123 9.06283 47.0958 9.11107C47.0793 9.15931 47.0793 9.24259 47.0985 9.2919C47.1566 9.44113 47.6515 9.42546 48.0777 9.38042C48.167 9.37099 48.2615 9.33538 48.2854 9.31898C48.4015 9.23918 48.0049 9.35363 47.7506 9.43167C47.4012 9.53894 46.9903 9.50311 46.7188 9.49991C46.5081 9.49742 46.3555 9.368 46.2223 9.28336C46.1581 9.2426 46.0832 9.18629 46.0152 9.17309C45.9895 9.16809 45.9921 9.23677 46.0049 9.26957C46.0539 9.39496 46.3338 9.42507 46.8539 9.50932C47.2617 9.57539 47.5246 9.56135 47.6612 9.54203C47.8627 9.51356 48.3772 9.46428 48.6541 9.44817C48.9363 9.43175 49.1809 9.38663 49.3469 9.36732C49.4622 9.3539 49.5315 9.25094 49.5703 9.20901C49.5881 9.18973 49.5835 9.16067 49.5611 9.13786C49.5055 9.08129 49.4092 9.05681 49.3189 9.01808C49.2066 8.9699 48.7719 8.9083 48.2058 8.83065C48.0049 8.80425 47.9792 8.80425 47.9372 8.79784C47.8952 8.79144 47.8375 8.77862 47.7781 8.76542" stroke="#575D64" stroke-linecap="round"/>
<path d="M46.0893 10.2602C45.9035 9.3441 45.7177 8.42801 45.6188 7.61335C45.5199 6.79869 45.5135 6.11323 45.5102 6.41355C45.5069 6.71386 45.5069 8.02073 45.5197 8.72279C45.5353 9.57678 45.6296 9.69023 45.6589 9.82932C45.6895 9.97467 45.7462 10.0917 45.7655 10.1401C45.7753 10.1645 45.7977 10.1821 45.814 10.1728C45.8625 10.1451 45.9268 9.93813 46.1905 9.18317C46.4008 8.58122 46.6977 7.51211 46.8626 6.9803C47.0275 6.44849 47.0339 6.48052 47.0308 6.55147C47.0229 6.73186 46.976 6.9076 46.7963 7.47872C46.6372 7.98425 46.3603 8.93391 46.2054 9.43835C46.0159 10.056 45.9666 10.2206 45.9308 10.3375C45.9227 10.364 45.9083 10.3891 45.8953 10.3735C45.8823 10.3578 45.8695 10.3002 45.8789 10.2288C45.8883 10.1575 45.9204 10.0742 46.1451 9.72381C46.3698 9.37341 46.7862 8.75842 47.0199 8.42238C47.2536 8.08634 47.2921 8.04791 47.3471 7.97686C47.4021 7.90581 47.4726 7.80331 47.3135 8.06761C47.1544 8.33192 46.7637 8.96613 46.5303 9.36652C46.1104 10.0871 46.1153 10.2532 46.0701 10.3312C46.0573 10.3535 45.9996 10.306 45.8676 10.0846C45.7356 9.8632 45.5177 9.44679 45.2774 9.02408C45.0371 8.60137 44.7808 8.18496 44.6264 7.91279C44.4114 7.53383 44.3553 7.36807 44.3133 7.29382C44.2939 7.25953 44.2905 7.22597 44.5498 7.60345C44.8092 7.98093 45.3345 8.7689 45.6243 9.21646C46.0266 9.83773 46.0178 9.96201 46.0503 10.0689C46.059 10.0975 46.0632 10.1301 46.0697 10.1594C46.0762 10.1887 46.0827 10.2144 46.1468 10.234C46.211 10.2536 46.3327 10.2664 46.4581 10.2796" stroke="#005F21" stroke-width="0.03" stroke-linecap="round"/>
<path d="M47.5259 10.2795C47.5259 9.98486 47.5259 9.51274 47.5227 9.01461C47.5215 8.83676 47.513 8.81116 47.5065 8.81718C47.5 8.8232 47.4936 8.86164 47.4903 9.18573C47.487 9.50983 47.487 10.1184 47.5287 10.2686C47.5865 10.477 47.7714 9.50556 47.8168 9.17506C47.843 8.98386 47.701 9.86838 47.6715 10.2848C47.6467 10.6371 47.6101 10.8613 47.5843 10.9295C47.54 11.0464 47.5068 10.5273 47.4452 10.3352C47.3528 10.0472 47.2094 9.77559 47.1344 9.62291C47.0799 9.51199 47.3756 10.0637 47.5955 10.4323C47.7333 10.6632 47.7458 10.7517 47.7555 10.7489C47.8629 10.7177 47.7716 10.468 47.8647 10.1977C47.931 10.0053 48.0923 9.7224 48.1618 9.60272C48.2313 9.48304 48.2185 9.5407 48.1831 9.62805C48.0993 9.83473 47.9409 10.1481 47.7986 10.4778C47.7194 10.6613 47.6815 10.8349 47.6169 11.0128C47.582 11.1089 47.3725 10.7365 47.0589 10.1027C46.9409 9.86431 46.8926 9.80199 46.8759 9.79782C46.5743 9.72242 47.1694 10.5505 47.2473 10.6899C47.3359 10.8486 47.4925 11.0223 47.5999 11.2014C47.6433 11.2737 47.8994 10.794 48.1839 10.2927C48.2873 10.1106 48.3148 10.0796 48.3248 10.0855C48.472 10.1727 48.1222 10.5498 47.9728 10.7416C47.9083 10.8542 47.8497 10.9586 47.8044 11.0425C47.7848 11.0879 47.772 11.1391 47.7394 11.2308" stroke="#005F21" stroke-width="0.03" stroke-linecap="round"/>
<path d="M44.1989 10.6208C44.1893 10.6303 44.1798 10.6399 44.1078 10.3982C44.0358 10.1565 43.9017 9.66323 43.8111 9.23432C43.7204 8.8054 43.6773 8.45579 43.6001 8.07695C43.5228 7.6981 43.4126 7.3006 43.3439 7.07428C43.2752 6.84795 43.2512 6.80485 43.2461 6.83533C43.2409 6.8658 43.2553 6.97116 43.3058 7.21461C43.3563 7.45806 43.4425 7.8364 43.4893 8.06243C43.5487 8.34922 43.5794 8.5777 43.6493 8.8723C43.7047 9.10534 43.7779 9.27038 43.8476 9.53008C43.8983 9.71923 43.9986 10.0197 44.0576 10.1966C44.1313 10.4182 44.165 10.5042 44.1867 10.5839C44.1968 10.6211 44.2131 10.6492 44.266 10.2474C44.3189 9.84551 44.4099 9.0122 44.4568 8.47277C44.5037 7.93334 44.5037 7.71304 44.4773 7.82943C44.451 7.94582 44.3983 8.40558 44.3712 8.96809C44.344 9.53059 44.344 10.1819 44.3393 10.5318C44.3345 10.8817 44.3249 10.9104 44.3152 10.8941C44.2738 10.8246 44.1902 10.5742 44.0403 10.2937C43.9853 10.1909 43.9766 10.1665 43.8471 9.97221C43.7177 9.77788 43.4686 9.41391 43.3332 9.21444C43.182 8.99189 43.1494 8.9424 43.1275 8.93006C43.0747 8.90024 43.2259 9.15385 43.4377 9.45251C43.5713 9.64092 43.7836 9.88528 43.904 10.0375C44.1135 10.3022 44.1792 10.3979 44.2495 10.5235C44.2858 10.6157 44.3198 10.6835 44.339 10.7077C44.3535 10.7128 44.3774 10.7032 44.4456 10.6933" stroke="#005F21" stroke-width="0.03" stroke-linecap="round"/>
<path d="M0.5 37.401C0.5 37.6367 0.532276 37.8807 0.597563 38.0363C0.611743 38.07 0.630084 38.1013 0.654535 38.122C0.767782 38.2177 1.21399 38.2079 1.50191 38.1836C1.66953 38.1694 1.84387 38.1101 2.02347 38.0411C2.2462 37.9556 2.44734 37.9389 2.57791 37.9186C2.74007 37.8934 2.95251 37.8494 3.11573 37.8005C3.27382 37.7532 3.42541 37.7272 3.62897 37.7148C3.85796 37.7009 4.0367 37.6783 4.31728 37.6619C4.69205 37.64 5.03042 37.5399 5.27946 37.503C5.37231 37.4892 5.47935 37.4907 5.61751 37.4664C5.7746 37.4387 6.26646 37.401 6.91822 37.397C7.47523 37.3935 7.98126 37.312 8.29889 37.1408C8.52851 37.0171 8.68253 36.9041 8.82117 36.8794C9.01199 36.8455 9.25226 36.8142 9.51756 36.7736C9.89638 36.7156 10.3355 36.5701 10.6587 36.4682C10.88 36.3984 11.046 36.3012 11.2945 36.2235C11.4923 36.1617 11.6167 36.0811 11.7513 35.9954C11.9458 35.8716 12.0652 35.6899 12.2401 35.5311C12.4309 35.3579 12.676 35.2903 12.8881 35.1764C13.0596 35.0619 13.2868 34.9162 13.9459 34.5862C14.0944 34.5081 14.1671 34.4516 14.2419 34.3934" stroke="#8A958E" stroke-linecap="round"/>
<path d="M14.1069 34.4993C14.4798 34.2876 14.6491 34.1689 14.8484 34.0713C15.1844 33.9067 15.488 33.7709 16.0012 33.5625C16.1967 33.4832 16.3124 33.4135 16.4978 33.3293C16.8883 33.1518 17.2953 32.9391 17.5581 32.8076C17.8157 32.6788 18.0765 32.5736 18.2929 32.4637C18.5372 32.3396 18.8385 32.1842 19.0907 32.0647C19.2354 31.9961 19.4086 31.9373 19.6248 31.8569C19.9653 31.7302 20.2317 31.6828 20.4564 31.6235C20.6405 31.5749 20.8334 31.4624 21.0208 31.3691C21.2592 31.2503 21.4535 31.1656 21.8513 30.9411C22.1117 30.7942 22.3275 30.682 22.4547 30.5843C22.6021 30.4711 22.777 30.3257 22.9297 30.1774C23.1646 29.9493 23.2947 29.8421 23.4303 29.7275C23.5232 29.639 23.6087 29.5282 23.689 29.4098C23.7358 29.3501 23.7945 29.2913 23.8551 29.2307" stroke="#8A958E" stroke-linecap="round"/>
<path d="M23.8042 29.5171C24.2282 28.9915 24.3127 28.8222 24.4485 28.6143C24.5422 28.4708 24.6182 28.2709 24.7539 28.0924C24.8781 27.9291 24.9745 27.7191 25.1018 27.5832C25.3318 27.3375 25.6021 26.9301 25.7169 26.7773C25.8198 26.6403 25.9417 26.5061 26.0689 26.3362C26.1955 26.1672 26.3739 25.9721 26.5143 25.7932C26.6611 25.6063 26.8238 25.5302 26.9598 25.3943C27.0876 25.2665 27.2143 25.1907 27.3627 25.0592C27.5424 24.9001 27.7737 24.7076 27.9479 24.5545C28.194 24.3383 28.3673 24.1395 28.6223 23.8508C28.8653 23.5757 29.2158 23.2991 29.3988 23.1207C29.5648 22.9588 29.8695 22.8491 30.014 22.7514C30.139 22.6669 30.5623 22.4179 30.9382 22.2173C31.3205 21.8987 31.4735 21.8053 31.5538 21.7503C31.6005 21.7206 31.6593 21.687 31.7707 21.6014" stroke="#8A958E" stroke-linecap="round"/>
<path d="M31.5381 21.8885C31.6021 21.7236 31.7306 21.5217 31.8181 21.365C31.9217 21.1797 32.1167 21.0159 32.2271 20.8687C32.3452 20.7112 32.4388 20.5289 32.535 20.3174C32.6335 20.1009 32.7509 19.9316 32.8156 19.697C32.8927 19.4175 32.9721 19.2421 33.059 19.0076C33.1642 18.7236 33.3025 18.5891 33.4404 18.3457C33.557 18.14 33.661 17.9642 33.7669 17.803C33.8765 17.6362 33.9826 17.4038 34.084 17.2148C34.2106 16.979 34.3229 16.7965 34.4379 16.5899C34.5731 16.3469 34.6814 16.1441 34.7735 15.9874C34.8697 15.8238 35.0029 15.6388 35.1547 15.4315C35.3173 15.2094 35.4718 15.0134 35.5687 14.8613C35.6533 14.7285 35.7933 14.5357 36.3022 13.9348C36.6786 13.4905 36.8688 13.276 37.1216 13.0919C37.3298 12.9403 37.4573 12.7156 37.632 12.5815C37.8361 12.4247 38.0817 12.2644 38.3855 12.1082C38.6491 11.9726 38.9189 11.832 39.1256 11.7403C39.3856 11.625 39.6084 11.5563 39.8014 11.4737C40.0659 11.3605 40.4903 11.1795 40.78 11.0739C41.0655 10.9698 41.2261 10.8856 41.3782 10.8209C41.4379 10.7753 41.5024 10.7198 41.5712 10.6648C41.6036 10.6371 41.6309 10.6098 41.6591 10.5817" stroke="#8A958E" stroke-linecap="round"/>
<path d="M0.145263 37.2656C0.141963 37.1622 0.167783 37.1041 0.206563 37.0603C0.254901 37.0057 0.310088 36.9843 0.36668 36.947C0.416931 36.9139 0.478214 36.8808 0.515634 36.829C0.552988 36.7773 0.575575 36.7383 0.57242 36.7269C0.555654 36.6663 0.504617 36.8317 0.483407 36.9255C0.47906 36.9448 0.494522 36.9548 0.505879 36.9517C0.594002 36.928 0.598192 36.7869 0.615908 36.7691C0.680535 36.7041 0.836985 37.0602 0.862077 37.1653C0.892275 37.2918 0.724578 36.9553 0.722782 36.9404C0.702676 36.7742 0.82786 37.1359 0.842518 37.2134C0.861615 37.3143 0.847371 37.4013 0.852225 37.4208C0.870577 37.4946 0.7636 37.1664 0.722928 37.0604C0.69779 36.9949 0.70827 36.9263 0.690555 36.8517C0.686618 36.8351 0.682449 36.8226 0.677596 36.8096C0.667748 36.7832 0.570042 36.8538 0.432542 36.9704C0.388106 37.0081 0.381532 36.9845 0.376678 36.965C0.366942 36.9258 0.358817 36.8264 0.358817 36.713C0.358817 36.6798 0.358817 36.6958 0.365224 36.7009C0.371631 36.7059 0.384444 36.6995 0.392647 36.6898C0.433324 36.6417 0.436473 36.5541 0.446181 36.5133C0.467272 36.4247 0.368719 36.6409 0.336297 36.6927C0.294775 36.7591 0.242528 36.8189 0.205253 36.8755C0.172826 36.9247 0.151767 36.9613 0.14371 36.976C0.0820058 37.0882 0.300381 36.664 0.347315 36.6074C0.38895 36.5572 0.416865 36.5023 0.494424 36.4182C0.521306 36.3891 0.52704 36.3566 0.533495 36.3435C0.561264 36.2873 0.572178 36.4821 0.620713 36.5696C0.669919 36.6584 0.691962 36.7185 0.724335 36.7704C0.734091 36.7962 0.743798 36.8254 0.755106 36.8577C0.760008 36.8739 0.763212 36.89 0.766512 36.9356" stroke="#8A958E" stroke-width="0.25" stroke-linecap="round"/>
<path d="M0.34922 36.8871C0.265254 36.9161 0.207109 36.9612 0.166534 37.005C0.127611 37.047 0.119552 37.1069 0.132316 37.4841C0.141975 37.5727 0.157991 37.6079 0.17425 37.6357C0.19051 37.6635 0.206526 37.6827 0.223028 37.7025" stroke="#8A958E" stroke-width="0.25" stroke-linecap="round"/>
<path d="M41.7039 10.7916C41.8203 10.8033 41.8977 10.8093 41.93 10.8044C41.9854 10.7961 42.0094 10.7272 42.038 10.6918C42.0603 10.6641 42.0742 10.6252 42.0977 10.5967C42.1222 10.567 42.1409 10.535 42.1517 10.5036C42.1637 10.4687 42.1703 10.4292 42.1801 10.3929C42.1825 10.3841 42.184 10.3762 42.1841 10.3684C42.1841 10.3605 42.1822 10.3527 42.1685 10.3478C42.0996 10.3226 42.0724 10.333 42.0791 10.333C42.0935 10.333 42.1304 10.333 42.1096 10.333C42.0888 10.333 42.0093 10.333 42.0217 10.333C42.034 10.333 42.1408 10.333 42.1676 10.333C42.197 10.333 42.0705 10.3291 42.05 10.3213C41.9851 10.2965 42.3194 10.3094 42.3047 10.3124C42.2733 10.3186 42.249 10.3641 42.2224 10.3985C42.1974 10.4308 42.1764 10.4622 42.145 10.4877C42.0998 10.5244 42.051 10.5778 42.002 10.6053C41.9459 10.6368 41.9118 10.6544 41.8775 10.6642C41.8667 10.6681 41.8531 10.6739 41.8442 10.6682C41.8352 10.6624 41.8313 10.645 41.8273 10.627" stroke="#8A958E" stroke-width="0.25" stroke-linecap="round"/>
<path d="M41.7861 10.3741C41.8037 10.3741 41.8545 10.3663 41.9075 10.3535C41.9318 10.3477 41.9468 10.331 41.9566 10.3241C41.961 10.3211 41.9548 10.3115 41.9489 10.3075C41.9353 10.3035 41.9195 10.2996 41.9 10.2937C41.8882 10.2917 41.8727 10.2917 41.8567 10.2917" stroke="#8A958E" stroke-width="0.25" stroke-linecap="round"/>
<path d="M41.5091 10.2241C41.5029 10.221 41.4884 10.2064 41.4774 10.1913C41.4679 10.1782 41.5091 10.2147 41.5153 10.2188C41.5294 10.2282 41.4852 10.2116 41.4774 10.2136C41.4632 10.2174 41.4779 10.2448 41.4551 10.2771C41.4461 10.2897 41.4373 10.299 41.4321 10.3058C41.4214 10.3198 41.4299 10.2658 41.4434 10.2393C41.4476 10.2335 41.4517 10.2304 41.4539 10.2262C41.456 10.222 41.456 10.2169 41.456 10.2116" stroke="#8A958E" stroke-width="0.25" stroke-linecap="round"/>
<path d="M44.6433 9.98715C44.5084 9.35471 44.3735 8.72228 44.2618 8.13507C44.1501 7.54787 44.0658 7.02505 44.0182 6.63767C43.9705 6.25029 43.9621 6.01418 43.9029 5.55946C43.8438 5.10475 43.7341 4.43858 43.6819 4.29779C43.5888 4.04693 43.6973 5.26548 43.774 5.76312C43.8064 5.97319 43.8001 6.10055 43.8591 6.53252C43.9181 6.96449 44.0362 7.69812 44.097 8.11821C44.2004 8.83273 44.3438 9.31204 44.4472 9.52668C44.522 9.68212 44.6091 9.82463 44.6856 9.95291C44.6953 9.96912 44.7113 9.87778 45.0192 8.52335C45.3271 7.16892 45.9342 4.52955 46.2428 3.25842C46.5513 1.98729 46.5429 2.16437 46.2687 3.24641C45.9945 4.32845 45.4549 6.31008 45.1684 7.352C44.87 8.43744 44.8309 8.57228 44.8053 8.86882C44.7878 9.07204 44.7966 9.38461 44.7629 9.51161C44.7292 9.63861 44.6617 9.57115 44.5173 9.20753C44.373 8.84391 44.1537 8.18618 43.9311 7.64918C43.7086 7.11219 43.4893 6.71586 43.3469 6.47375C43.156 6.14928 43.0508 6.06068 42.9829 6.03513C42.8374 5.98044 42.6678 5.93318 42.6079 5.94519C42.5548 5.95583 42.666 6.15114 42.9916 6.66361C43.3171 7.17607 43.9074 8.04462 44.241 8.55951C44.7727 9.38016 44.8472 9.71271 44.9369 9.93183C44.9547 9.97527 44.9499 9.70964 45.0553 9.33593C45.1608 8.96222 45.3716 8.39724 45.6235 7.84479C45.8755 7.29234 46.1622 6.76952 46.1328 6.87966C46.1034 6.98979 45.7492 7.74871 45.4993 8.25351C45.1322 8.99503 44.9502 9.25429 44.8992 9.35178C44.8229 9.49764 44.7969 9.62915 44.7501 9.68856C44.7287 9.72268 44.7118 9.76484 44.7959 9.7444C44.8799 9.72395 45.0654 9.63963 45.2566 9.55275" stroke="#005F21" stroke-width="0.25" stroke-linecap="round"/>
<path d="M47.9908 10.4215C48.1594 8.57484 48.3281 6.72813 48.4108 5.28771C48.4934 3.84729 48.485 2.86912 48.4469 2.2303C48.4088 1.59148 48.3414 1.32164 48.3024 1.14469C48.2634 0.967732 48.255 0.891839 48.2507 2.22302C48.2463 3.5542 48.2463 6.29475 48.259 7.77823C48.2716 9.2617 48.2969 9.40505 48.3099 9.51685C48.323 9.62864 48.323 9.70453 48.3778 9.54968C48.4326 9.39483 48.5422 9.00694 48.8517 8.23371C49.1611 7.46048 49.6671 6.31366 49.9404 5.70179C50.2136 5.08993 50.2389 5.04777 50.252 5.06821C50.265 5.08865 50.265 5.17298 50.0247 5.68442C49.7843 6.19586 49.3037 7.13186 48.9465 7.86281C48.5892 8.59375 48.37 9.09126 48.2191 9.50356C48.0682 9.91586 47.9923 10.2279 47.949 10.3549C47.9235 10.4295 47.8801 9.83051 47.8421 8.91623C47.8254 8.51557 47.7618 8.24648 47.6894 7.95991C47.5412 7.37363 47.3612 6.9139 47.2547 6.74282C47.1804 6.62334 47.2914 7.30128 47.5078 8.00539C47.6381 8.42925 47.7833 8.99621 47.8657 9.3252C47.996 9.84535 47.9908 9.96977 48.0161 10.0209C48.0506 10.0907 48.3971 9.8949 48.8773 9.60181C49.5907 9.16646 49.6599 8.90626 49.7072 8.854C49.984 8.54797 49.2184 9.48324 48.9374 9.71795C48.6219 10.0035 48.4001 10.2079 48.3108 10.3228C48.2721 10.3702 48.2468 10.3955 48.2208 10.4215" stroke="#005F21" stroke-width="0.25" stroke-linecap="round"/>
<path d="M43.7165 10.6372C43.7165 10.3657 43.7165 10.0941 43.6736 9.66124C43.6307 9.22836 43.545 8.64237 43.4901 7.65804C43.4352 6.67371 43.4138 5.30878 43.4527 4.46272C43.4917 3.61665 43.5918 3.33081 43.7148 3.04777C43.8378 2.76474 43.9807 2.49319 44.1713 2.14844" stroke="black" stroke-width="0.25" stroke-linecap="round"/>
<path d="M43.8704 10.6324C43.9041 10.5818 43.9383 10.4546 44.2126 9.57607C44.4567 8.79444 44.9676 7.34836 45.3335 6.3946C45.6994 5.44084 45.9187 5.02764 46.0991 4.72203C46.2795 4.41642 46.4144 4.2309 46.6357 4.00042C46.857 3.76993 47.1606 3.50009 47.494 3.25989C47.8275 3.01969 48.1817 2.81732 48.381 2.69619C48.5803 2.57507 48.614 2.54134 48.6488 2.50659" stroke="black" stroke-width="0.25" stroke-linecap="round"/>
<path d="M43.9469 10.5557C43.6096 9.83892 43.2723 9.12216 43.0732 8.71497C42.8742 8.30779 42.8236 8.23189 42.4518 7.61517C42.08 6.99845 41.3885 5.84321 41.0239 5.22278C40.6592 4.60236 40.6424 4.55176 40.625 4.49963" stroke="black" stroke-width="0.25" stroke-linecap="round"/>
<path d="M44.2754 2.04625C44.2688 2.0134 44.2622 1.98055 44.2391 1.82731C44.216 1.67406 44.1766 1.40141 44.1563 1.16898C44.136 0.936543 44.136 0.752587 44.136 0.670961C44.136 0.615615 44.1524 0.777373 44.1839 1.00115C44.2022 1.13143 44.2322 1.23597 44.247 1.35522C44.2588 1.44922 44.2852 1.6859 44.3001 1.79237C44.3127 1.88226 44.3052 1.3174 44.3019 1.11283C44.2978 0.857855 44.2622 0.779065 44.2373 0.694454C44.2137 0.614407 44.186 0.527022 44.1643 0.443903C44.145 0.370091 44.1327 0.330922 44.1261 0.317583C44.1246 0.31459 44.1195 0.330523 44.1178 0.483472C44.1161 0.63642 44.1161 0.928779 44.1177 1.08924C44.12 1.30992 44.1525 1.39544 44.1575 1.46039C44.1626 1.52548 44.1724 1.60448 44.194 1.67605C44.2122 1.73658 44.2419 1.84975 44.3166 2.02077C44.3319 2.05591 44.3383 2.07572 44.3433 2.0793C44.3762 2.10275 44.3188 1.93417 44.2491 1.66072C44.2268 1.57332 44.1991 1.5124 44.1891 1.44944C44.1824 1.40659 44.1661 1.2513 44.1345 1.03569C44.1139 0.894518 44.0962 0.729891 44.0879 0.633035C44.078 0.517182 44.0631 0.404384 44.0563 0.350731C44.0471 0.278377 44.1358 0.45993 44.1905 0.567586C44.235 0.654914 44.2521 0.718742 44.3 0.826398C44.3378 0.911064 44.3614 0.98731 44.3765 1.05226C44.3928 1.12173 44.4312 1.19317 44.4528 1.26125C44.4748 1.33087 44.4876 1.39225 44.4943 1.862C44.4956 1.9469 44.4943 1.9272 44.496 1.90719C44.502 1.8338 44.5109 1.78107 44.5341 1.72463C44.5672 1.64409 44.5871 1.5555 44.6649 1.40808C44.713 1.31704 44.7894 1.24353 44.8541 1.20526C44.9322 1.15904 44.9951 1.1207 45.0912 1.06928C45.2162 1.00248 45.3632 0.951474 45.4348 0.926489C45.4787 0.911179 45.5162 0.888264 45.5345 0.88493C45.574 0.877737 45.4436 0.918028 45.3987 0.947841C45.3468 0.982328 45.2843 1.03071 45.213 1.08874C45.1487 1.14104 45.1149 1.1866 45.0719 1.23642C45.0141 1.30342 44.9692 1.36896 44.9374 1.42888C44.9058 1.48848 44.8563 1.535 44.8015 1.60627C44.7141 1.72004 44.6638 1.76395 44.6239 1.82372C44.5899 1.8747 44.5443 1.92322 44.5012 1.97801C44.4888 1.99375 44.4715 2.00942 44.4811 2.02774C44.5341 2.12884 44.6301 2.10916 44.6915 2.144C44.7505 2.17744 44.8356 2.2318 44.8924 2.27998C44.9538 2.33213 44.9885 2.39445 45.0813 2.48554C45.1431 2.54615 45.1744 2.62659 45.2093 2.68313C45.2252 2.70901 45.2441 2.74286 45.2509 2.77272C45.2796 2.89966 44.9624 2.67357 44.8928 2.64033C44.8171 2.60414 44.7569 2.54098 44.6837 2.48608C44.6034 2.42583 44.5244 2.33851 44.4746 2.29197C44.4094 2.23101 44.3618 2.16919 44.3566 2.14759C44.3341 2.05275 44.5372 2.22523 44.6234 2.29317C44.7083 2.36004 44.7695 2.39784 44.8144 2.43432C44.8263 2.444 44.8392 2.45418 44.8262 2.44447C44.7739 2.4052 44.6446 2.29591 44.5003 2.17153C44.3828 2.07017 44.2955 2.00006 44.2457 1.93865C44.233 1.92303 44.2192 1.91047 44.2009 1.90535C44.1257 1.88424 44.0699 1.91346 44.0002 1.93501C43.9443 1.95229 43.8776 1.98294 43.8127 2.01793C43.7388 2.05781 43.6916 2.08925 43.6352 2.12245C43.5682 2.16186 43.5091 2.19537 43.4395 2.23688C43.3643 2.28176 43.3199 2.32477 43.2603 2.37783C43.2427 2.39347 43.2272 2.41416 43.2368 2.42432C43.3164 2.50849 43.4587 2.40142 43.5219 2.39137C43.5945 2.37982 43.6512 2.35484 43.6995 2.32676C43.7617 2.29063 43.8437 2.26206 43.8969 2.22722C43.9486 2.19334 44.0359 2.11653 44.0977 2.04809C44.1197 2.02372 44.1458 1.99339 44.1608 1.96512C44.1642 1.95865 44.1659 1.97299 44.1593 1.98304C44.1295 2.02861 44.0699 2.04287 44.0118 2.05944C43.9295 2.08294 43.8314 2.11235 43.7232 2.15232C43.6565 2.17696 43.5758 2.20532 43.5008 2.2419C43.4456 2.26886 43.3239 2.29491 43.2056 2.34304C43.1325 2.37278 43.1009 2.46055 43.0627 2.50744C43.0455 2.52856 43.041 2.45119 43.0459 2.42143C43.0587 2.34451 43.127 2.29212 43.1719 2.23558C43.2209 2.17395 43.2962 2.12947 43.3577 2.08622C43.4116 2.04826 43.4655 2.02973 43.5713 1.98349C43.809 1.87964 43.8636 1.86389 43.9564 1.8406C44.0079 1.82767 44.0824 1.82736 44.1439 1.81242C44.1741 1.8051 44.0402 1.83383 43.8002 1.92142C43.6343 1.98196 43.5557 2.05919 43.4909 2.09921C43.4318 2.13569 43.3864 2.17884 43.3002 2.25002C43.2233 2.31346 43.1641 2.33811 43.1192 2.37295C43.0737 2.40826 43.0247 2.43766 42.9484 2.4824C42.9308 2.49274 42.9218 2.50395 42.9233 2.50739C42.9451 2.55768 43.0836 2.4942 43.1586 2.48593C43.2137 2.47986 43.3058 2.45119 43.4057 2.4279C43.474 2.41197 43.5877 2.40142 43.7175 2.36658C43.8339 2.33533 43.9331 2.30845 43.9882 2.27864C44.0378 2.25174 44.0926 2.22224 44.1227 2.17257C44.1589 2.1126 44.1426 2.0367 44.1476 1.95034C44.1524 1.8671 44.1296 1.75479 44.0897 1.66167C44.0623 1.59782 44.0498 1.53559 44.02 1.45427C43.995 1.38609 43.9934 1.28355 43.985 1.22024C43.9815 1.19354 43.9767 0.999554 43.9784 0.71924C43.9792 0.579301 43.9966 0.487404 44.0049 0.413941C44.0109 0.360483 44.0265 0.281548 44.0348 0.214854C44.038 0.188523 44.0397 0.155128 44.0496 0.13512C44.0799 0.0740603 44.1091 0.303647 44.1855 0.439822C44.2222 0.505152 44.2322 0.569427 44.262 0.64075C44.2887 0.704818 44.2951 0.761944 44.3184 0.843072C44.3488 0.948553 44.3847 1.05361 44.4047 1.14509C44.4172 1.20216 44.4511 1.25289 44.4677 1.33422C44.4943 1.39574 44.5009 1.45536 44.5439 1.54321C44.5573 1.56496 44.5704 1.58138 44.5839 1.59831" stroke="white" stroke-width="0.25" stroke-linecap="round"/>
<path d="M40.6754 4.39909C40.6133 4.25532 40.5032 3.9962 40.4563 3.90998C40.4219 3.84655 40.421 3.77302 40.3858 3.66931C40.3479 3.55749 40.331 3.42111 40.3153 3.3033C40.2842 3.07076 40.2173 2.94305 40.2056 2.86652C40.2023 2.84486 40.1978 2.81783 40.1958 2.79417C40.1938 2.7705 40.1938 2.75112 40.2074 2.78183C40.3107 3.01574 40.3698 3.16904 40.3973 3.24774C40.4268 3.33202 40.4795 3.41994 40.5225 3.52741C40.5837 3.68018 40.5892 3.77232 40.6068 3.84673C40.6325 3.95526 40.6362 4.08946 40.6421 4.17168C40.647 4.23894 40.6635 4.28926 40.6812 4.31088C40.7125 4.34933 40.7067 4.17638 40.734 4.08617C40.7559 4.01397 40.8006 3.95697 40.826 3.8923C40.8547 3.8195 40.9178 3.73403 40.9689 3.66126C41.0192 3.58949 41.1716 3.45236 41.3132 3.3793C41.3514 3.35958 41.3839 3.34981 41.3919 3.35557C41.4787 3.41807 41.2552 3.48642 41.2139 3.56289C41.1754 3.63428 41.1102 3.6901 41.0593 3.78594C41.0074 3.88367 40.9458 3.93676 40.8695 4.02092C40.807 4.08991 40.7696 4.15994 40.7382 4.23429C40.7097 4.30159 40.505 4.34036 40.2212 4.34423C40.0206 4.34697 39.8537 4.46933 39.7829 4.49881C39.7095 4.52944 39.6577 4.57129 39.5968 4.60453C39.5334 4.63912 39.84 4.59877 40.0542 4.56759C40.1744 4.55007 40.2366 4.54004 40.311 4.51667C40.4163 4.48359 40.5108 4.4227 40.5343 4.41283C40.7425 4.32514 40.5852 5.05264 40.6068 5.11536C40.6456 5.22792 40.7064 5.39328 40.736 5.48719C40.7608 5.56592 40.7771 5.6282 40.785 5.69092C40.787 5.707 40.7966 5.72217 40.8084 5.70883C40.9012 5.60342 40.8751 5.4762 40.8907 5.39979C40.9138 5.28603 40.9298 5.21004 40.9299 4.75916C40.93 4.55802 40.8636 4.45829 40.836 4.3662C40.8273 4.33709 40.8166 4.29807 40.8067 4.28973C40.7891 4.27483 40.7695 4.42939 40.748 4.59566C40.7135 4.86253 40.7301 5.17809 40.7303 5.12599C40.7308 4.90505 40.6754 4.73209 40.6715 4.67753C40.6654 4.59139 40.6519 4.47802 40.6461 4.3763C40.6438 4.33624 40.6287 4.32109 40.5839 4.31311C40.3506 4.27146 40.2373 4.32861 40.1394 4.3403C40.0561 4.35024 39.9789 4.3716 39.9044 4.38335C39.7844 4.40228 39.697 4.46534 39.6224 4.49687C39.5603 4.52316 39.505 4.5828 39.454 4.63771C39.3963 4.69981 39.3717 4.75523 39.3522 4.76709C39.3447 4.77162 39.3403 4.74019 39.348 4.71465C39.3827 4.59968 39.4848 4.53652 39.5378 4.48149C39.5932 4.42391 39.696 4.37982 39.8407 4.32685C40.0788 4.23971 40.1896 4.24639 40.2854 4.23664C40.3186 4.23326 40.3613 4.23464 40.362 4.24433C40.3701 4.36713 40.1513 4.34012 40.0415 4.36767C39.9404 4.39305 39.8887 4.43409 39.7792 4.47139C39.6805 4.50506 39.5912 4.54779 39.5245 4.57516C39.4612 4.60115 39.4187 4.62215 39.3914 4.64558C39.3765 4.65836 39.3563 4.66901 39.3812 4.67694C39.577 4.73928 39.6963 4.6615 39.7785 4.64388C39.8554 4.62738 39.9777 4.58726 40.0683 4.57334C40.1552 4.55998 40.2248 4.53229 40.2895 4.52636C40.3648 4.51945 40.4245 4.47356 40.4659 4.45007C40.594 4.37742 40.0926 4.5243 39.973 4.54779C39.8631 4.5694 39.7713 4.57129 39.7495 4.58303C39.7625 4.58703 39.8245 4.58703 39.8739 4.57733C39.9233 4.56764 39.9582 4.54826 39.9941 4.5283" stroke="white" stroke-width="0.25" stroke-linecap="round"/>
<path d="M40.8752 4.23459C40.8828 4.20746 40.9377 4.11361 40.9905 4.04689C41.0654 3.95218 41.1996 3.7967 41.2509 3.70438C41.2964 3.62255 41.3291 3.5303 41.3762 3.43034C41.4093 3.36016 41.4273 3.29514 41.4292 3.26766C41.4295 3.26302 41.435 3.27893 41.4273 3.29661C41.3881 3.38679 41.275 3.44714 41.1887 3.52948C41.0769 3.63618 41.0439 3.73304 40.9889 3.81731C40.976 3.83719 40.9539 3.84674 40.942 3.83722C40.908 3.81009 40.9222 3.72987 40.9338 3.6615C40.9558 3.53219 41.0706 3.47556 41.1412 3.42229C41.1979 3.37949 41.3128 3.33038 41.4035 3.30478C41.4197 3.30021 41.4348 3.29115 41.4234 3.29103C41.241 3.28915 41.0246 3.47862 40.9342 3.54134C40.8472 3.60169 40.8047 3.6938 40.7657 3.77227C40.7412 3.8216 40.7539 3.87422 40.7635 3.88609C40.8431 3.98415 40.9804 3.75723 41.0453 3.7062C41.1352 3.63541 41.2661 3.53429 41.3331 3.45765C41.4074 3.37273 40.9851 3.82724 40.8659 3.91316C40.755 3.99311 40.6915 4.03092 40.6171 4.02716C40.5193 4.02222 40.4761 3.89043 40.4251 3.80434C40.3354 3.65264 40.3389 3.56154 40.2959 3.38958C40.2622 3.2549 40.2526 3.13493 40.2429 3.05053C40.2295 2.93486 40.2057 2.86066 40.2037 2.81555C40.19 2.85232 40.1822 2.96907 40.186 3.11766C40.1899 3.18097 40.1977 3.21973 40.2174 3.25967" stroke="white" stroke-width="0.25" stroke-linecap="round"/>
<path d="M40.9412 4.29102C41.0962 4.21707 41.2587 4.18753 41.4546 4.16155C41.5388 4.15039 41.6713 4.15778 41.7173 4.16877C41.7633 4.17976 41.7193 4.20175 41.6783 4.21674C41.5263 4.26126 41.3054 4.29102 41.1669 4.33887C41.1919 4.35742 41.2871 4.3794 41.3853 4.40205" stroke="white" stroke-width="0.25" stroke-linecap="round"/>
<path d="M41.23 4.35756C41.2888 4.38709 41.7149 4.40197 41.9882 4.36511C42.0222 4.36053 42.0583 4.35756 42.0771 4.3429C42.096 4.32824 42.096 4.29893 42.0777 4.2765C41.9557 4.20966 41.8229 4.1799 41.6087 4.12461C41.5055 4.11328 41.337 4.11328 41.1633 4.11328" stroke="white" stroke-width="0.25" stroke-linecap="round"/>
<path d="M48.5717 2.63562C48.4415 2.44768 48.3449 2.21624 48.2891 1.8735C48.2443 1.59824 48.2817 1.45594 48.2865 1.50176C48.2973 1.60495 48.407 1.73102 48.4892 1.86647C48.6083 2.06257 48.6248 2.20986 48.6321 2.30172C48.6396 2.39498 48.6588 2.4661 48.6683 2.50489C48.6889 2.58812 48.7504 2.33167 48.8252 2.21791C48.8927 2.1153 48.9775 2.01728 49.0596 1.95188C49.1806 1.85546 49.3635 1.81919 49.4729 1.76568C49.4944 1.75519 49.5187 1.7464 49.531 1.75104C49.5433 1.75568 49.5433 1.77482 49.5194 1.80861C49.4027 1.9734 49.2684 2.00684 49.1714 2.09392C49.0976 2.16029 48.9929 2.26757 48.8093 2.38387C48.6889 2.46014 48.5961 2.52425 48.5886 2.55803C48.5572 2.70029 48.8803 2.66433 49.0858 2.75851C49.2039 2.81262 49.2916 2.89635 49.4147 2.99286C49.5673 3.11248 49.601 3.21538 49.628 3.26867C49.6968 3.40456 49.3026 3.22089 49.1499 3.11938C49.0253 3.03655 48.8725 2.9938 48.7558 2.92586C48.6489 2.86368 48.572 2.79542 48.5019 2.73734C48.4847 2.72304 48.4705 2.70841 48.4536 2.70819C48.3762 2.7072 48.3545 2.82384 48.3205 2.91556C48.2709 3.04951 48.2141 3.15244 48.1563 3.26831C48.0823 3.41651 48.0884 3.5054 48.0764 3.53934C48.0447 3.62877 48.088 3.28382 48.1269 3.16781C48.1747 3.02537 48.1753 2.90679 48.1874 2.82442C48.2001 2.73768 48.2717 2.67462 48.289 2.62387C48.3948 2.31272 47.6054 2.34588 47.5256 2.29984C47.4798 2.27343 47.436 2.24423 47.4261 2.21769C47.3717 2.07115 47.7736 2.22929 47.885 2.27294C47.9899 2.31407 48.1167 2.41781 48.2089 2.44703C48.228 2.45308 48.2475 2.45667 48.2478 2.46153C48.2516 2.52468 48.0889 2.43289 47.9536 2.37488C47.7672 2.2949 47.7069 2.23451 47.6414 2.2319C47.6008 2.23028 47.658 2.32123 47.6917 2.36219C47.7669 2.45348 47.8847 2.48074 48.0034 2.49539C48.0556 2.50184 48.0978 2.51961 48.1149 2.51961C48.2088 2.51961 47.7997 2.53411 47.6682 2.50286C47.5554 2.47607 47.4989 2.37024 47.4433 2.28787C47.4185 2.25119 47.3973 2.21522 47.3684 2.18151C47.3526 2.16312 47.3394 2.13822 47.3799 2.14982C47.6492 2.22704 47.7397 2.33544 47.8343 2.37452C47.9395 2.41796 48.0781 2.46146 48.1651 2.49278C48.1972 2.50433 48.1947 2.52889 48.1851 2.54353C48.1375 2.61642 48.0259 2.6594 47.9677 2.74887C47.9203 2.82171 47.9386 2.92042 47.9361 3.37098C47.9355 3.46686 47.9433 3.48597 47.9505 3.5054C47.9578 3.52484 47.9673 3.54398 47.9747 3.5323C47.982 3.52063 47.9868 3.47756 48.0203 3.40273C48.0539 3.32791 48.1161 3.22263 48.1802 3.11416" stroke="white" stroke-width="0.25" stroke-linecap="round"/>
<path d="M48.7893 2.72266C48.91 2.81924 48.9871 2.84824 49.0645 2.89167C49.1031 2.90624 49.1372 2.93031 49.1685 2.96889C49.1855 2.98832 49.2046 3.00746 49.2533 3.07069" stroke="white" stroke-width="0.25" stroke-linecap="round"/>
<path d="M48.8909 2.49055C48.9437 2.44748 49.0501 2.32175 49.1034 2.25635C49.1468 2.1766 49.2337 2.08016 49.2894 1.98337C49.3063 1.95908 49.3303 1.93515 49.3839 1.896" stroke="white" stroke-width="0.25" stroke-linecap="round"/>
<path d="M49.0649 2.33111C49.1319 2.28326 49.1952 2.22511 49.253 2.16C49.2822 2.12839 49.3109 2.09967 49.3305 2.07531C49.35 2.05095 49.3596 2.03181 49.3695 2.01208" stroke="white" stroke-width="0.25" stroke-linecap="round"/>
<path d="M40.7026 4.16357C40.7088 4.19439 40.7335 4.23152 40.7551 4.24395C40.7645 4.24414 40.7706 4.23189 40.7737 4.21792C40.7769 4.20395 40.7769 4.18863 40.7769 4.17286" stroke="black" stroke-width="0.25" stroke-linecap="round"/>
<path d="M44.3779 1.70398L44.3965 1.74111" stroke="black" stroke-width="0.25" stroke-linecap="round"/>
<path d="M48.564 2.51843L48.5732 2.537" stroke="black" stroke-width="0.25" stroke-linecap="round"/>
</svg>
